<svg width="16" height="16" viewBox="0 0 16 16" fill="none" xmlns="http://www.w3.org/2000/svg">
<path fill-rule="evenodd" clip-rule="evenodd" d="M2.29583 4.2195L8.00016 8.38936L13.7045 4.2195C13.6088 3.88562 13.3105 3.6394 12.9614 3.6394H3.03892C2.68981 3.6394 2.39149 3.88562 2.29583 4.2195ZM13.7366 5.38181L8.26689 9.38017C8.10674 9.49724 7.89359 9.49724 7.73344 9.38017L2.26373 5.38181V12.2203C2.26373 12.6645 2.61363 13.0299 3.03892 13.0299H12.9614C13.3867 13.0299 13.7366 12.6645 13.7366 12.2203V5.38181ZM1.3335 4.44892C1.3335 3.46829 2.09988 2.66797 3.03892 2.66797H12.9614C13.9005 2.66797 14.6668 3.46829 14.6668 4.44892V12.2203C14.6668 13.201 13.9005 14.0013 12.9614 14.0013H3.03892C2.09988 14.0013 1.3335 13.201 1.3335 12.2203V4.44892Z" fill="#0662B7"/>
</svg>
