<svg width="20" height="20" viewBox="0 0 20 20" fill="none" xmlns="http://www.w3.org/2000/svg">
<path fill-rule="evenodd" clip-rule="evenodd" d="M10 1.39535C5.24778 1.39535 1.39535 5.24778 1.39535 10C1.39535 14.7522 5.24778 18.6047 10 18.6047C14.7522 18.6047 18.6047 14.7522 18.6047 10C18.6047 5.24778 14.7522 1.39535 10 1.39535ZM0 10C0 4.47715 4.47715 0 10 0C15.5228 0 20 4.47715 20 10C20 15.5228 15.5228 20 10 20C4.47715 20 0 15.5228 0 10ZM15.1445 6.71597C15.417 6.98843 15.417 7.43017 15.1445 7.70263L8.74914 14.098C8.47669 14.3704 8.03494 14.3704 7.76248 14.098L4.85551 11.191C4.58305 10.9185 4.58305 10.4768 4.85551 10.2043C5.12797 9.93189 5.56971 9.93189 5.84217 10.2043L8.25581 12.618L14.1578 6.71597C14.4303 6.44351 14.872 6.44351 15.1445 6.71597Z" fill="#32A64D"/>
</svg>
